<svg width="71" height="70" viewBox="0 0 71 70" fill="none" xmlns="http://www.w3.org/2000/svg">
<path d="M35.8174 69.6157C38.4834 69.6157 40.0386 68.1875 41.9111 65.2993L47.3384 56.7935H55.3364C65.0483 56.7935 70.9834 50.7949 70.9834 41.1782V15.8511C70.9834 6.23438 65.0483 0.23584 55.3364 0.23584H15.6318C5.95166 0.23584 0.0166016 6.20264 0.0166016 15.8511V41.1782C0.0166016 50.8267 5.95166 56.7935 15.6318 56.7935H24.2329L29.7236 65.3311C31.5327 68.1558 33.1514 69.6157 35.8174 69.6157Z" fill="white"/>
<path d="M25.207 36H28.7461V28.875H36.3633V36H39.9023V19.0898H36.3633V25.957H28.7461V19.0898H25.207V36ZM45.4102 21.1172C46.4648 21.1172 47.332 20.2734 47.332 19.2188C47.332 18.1523 46.4648 17.3086 45.4102 17.3086C44.3555 17.3086 43.4766 18.1523 43.4766 19.2188C43.4766 20.2734 44.3555 21.1172 45.4102 21.1172ZM43.6875 36H47.1094V23.0977H43.6875V36Z" fill="#4718AD"/>
</svg>
