<svg width="71" height="70" viewBox="0 0 71 70" fill="none" xmlns="http://www.w3.org/2000/svg">
<path d="M35.8174 69.6157C38.4834 69.6157 40.0386 68.1875 41.9111 65.2993L47.3384 56.7935H55.3364C65.0483 56.7935 70.9834 50.7949 70.9834 41.1782V15.8511C70.9834 6.23438 65.0483 0.23584 55.3364 0.23584H15.6318C5.95166 0.23584 0.0166016 6.20264 0.0166016 15.8511V41.1782C0.0166016 50.8267 5.95166 56.7935 15.6318 56.7935H24.2329L29.7236 65.3311C31.5327 68.1558 33.1514 69.6157 35.8174 69.6157Z" fill="white"/>
<path d="M6.41406 36H9.95312V28.875H17.5703V36H21.1094V19.0898H17.5703V25.957H9.95312V19.0898H6.41406V36ZM30.543 36.2695C34.3164 36.2695 35.9805 34.0898 36.3789 32.4727L36.4023 32.3555H33.2148L33.1797 32.4258C32.9453 32.918 32.1133 33.7148 30.6133 33.7148C28.7969 33.7148 27.6602 32.4844 27.625 30.3633H36.5078V29.2969C36.5078 25.3945 34.1641 22.8164 30.4023 22.8164C26.6406 22.8164 24.2383 25.4531 24.2383 29.5547V29.5664C24.2383 33.7031 26.6172 36.2695 30.543 36.2695ZM30.4609 25.3828C31.9492 25.3828 33.0156 26.3438 33.2266 28.2188H27.6602C27.8711 26.3906 28.9727 25.3828 30.4609 25.3828ZM39.4258 36H42.8477V18.1641H39.4258V36ZM46.5039 36H49.9258V18.1641H46.5039V36ZM59.1953 36.2695C63.168 36.2695 65.5586 33.7617 65.5586 29.5547V29.5312C65.5586 25.3594 63.1328 22.8164 59.1953 22.8164C55.2578 22.8164 52.832 25.3711 52.832 29.5312V29.5547C52.832 33.75 55.2227 36.2695 59.1953 36.2695ZM59.1953 33.5859C57.3672 33.5859 56.3359 32.0977 56.3359 29.5547V29.5312C56.3359 27.0117 57.3789 25.5 59.1953 25.5C61 25.5 62.0547 27.0117 62.0547 29.5312V29.5547C62.0547 32.0977 61.0117 33.5859 59.1953 33.5859Z" fill="#4718AD"/>
</svg>
