<svg width="269" height="274" viewBox="0 0 269 274" fill="none" xmlns="http://www.w3.org/2000/svg">
<path opacity="0.18" d="M-28.2886 19.001C-44.8496 28.3625 -59.5216 41.817 -67.8965 58.8818C-76.2715 75.9466 -77.6988 94.9214 -78.5804 113.644C-79.462 134.634 -79.357 155.624 -74.2145 175.984C-69.4498 194.728 -60.4871 212.15 -50.433 228.669C-43.0445 240.801 -34.7115 252.891 -22.7893 260.637C-14.0452 265.907 -4.37945 269.469 5.69398 271.131C39.7168 277.717 74.9617 272.891 105.963 257.404C129.052 245.818 149.118 228.543 173.487 220.336C194.876 213.136 218.888 213.115 238.157 201.445C262.169 186.752 273.168 155.393 267.291 127.876C261.414 100.358 240.739 77.4998 215.677 64.654C201.467 57.3915 186.102 53.1935 171.787 46.4138C157.472 39.6341 144.395 30.3565 130.437 22.8212C80.5649 -4.15082 21.9611 -9.41928 -28.2886 19.001Z" fill="#2F1073"/>
<path d="M142.695 95.1733L145.487 96.3488C146.506 96.6268 147.383 97.2789 147.942 98.1749C148.234 99.1208 148.182 100.139 147.795 101.051C147.418 102.289 146.977 103.527 146.494 104.745C145.864 106.361 145.13 107.956 144.647 109.614C143.702 113.809 143.531 118.141 144.143 122.397C144.143 123.783 142.38 124.496 141.016 124.685C138.443 125.226 135.774 125.089 133.27 124.286C133.039 124.221 132.824 124.107 132.641 123.95C132.413 123.659 132.308 123.29 132.347 122.922C132.2 120.634 132.2 118.262 131.885 116.163C131.76 115.018 131.528 113.886 131.192 112.784C130.955 111.702 130.772 110.61 130.647 109.509C130.458 108.628 130.185 107.767 130.038 106.886C129.857 105.997 129.922 105.075 130.227 104.22C130.605 103.296 131.13 102.436 131.591 101.554C132.085 100.595 132.52 99.6069 132.893 98.5947C133.094 97.8562 133.397 97.1496 133.795 96.4957C134.297 95.8999 134.924 95.4218 135.631 95.0953C136.339 94.7688 137.109 94.602 137.888 94.6066C139.513 94.4452 141.153 94.6386 142.695 95.1733Z" fill="#FFBBAB"/>
<path d="M125.504 84.3215C124.709 83.323 124.065 82.2126 123.594 81.0261C123.066 79.5084 122.741 77.9274 122.629 76.3244C122.543 75.7484 122.586 75.1606 122.755 74.6032C123.027 73.8476 123.699 73.2808 123.909 72.5042C123.94 72.4231 123.94 72.3335 123.909 72.2523C123.909 72.2523 123.804 72.0844 123.636 72.0844L122.755 71.8535C122.902 71.1363 122.783 70.3898 122.419 69.7545C122.312 69.5233 122.14 69.3284 121.923 69.1941C121.707 69.0598 121.456 68.9919 121.201 68.9989C120.656 68.9989 120.383 69.6916 119.921 70.0064C119.459 70.3213 118.955 70.3633 118.557 70.6781C118.133 71.1354 117.893 71.7337 117.885 72.3573C117.856 73.8678 118.083 75.3724 118.557 76.8071C118.858 78.4822 119.265 80.1367 119.774 81.7608C121.388 86.7688 123.97 91.4113 127.372 95.4252C128.674 96.9574 133.669 103.003 135.642 101.449C138.434 99.3503 136.608 95.8869 134.677 94.2287C131.227 91.3129 128.146 87.9857 125.504 84.3215Z" fill="#FFBBAB"/>
<path d="M137.238 94.1658C136.293 95.6141 135.369 97.1044 134.509 98.6156C134.345 98.8399 134.227 99.0946 134.162 99.3649C134.097 99.6351 134.087 99.9155 134.131 100.19C134.288 100.546 134.572 100.831 134.929 100.987C135.661 101.315 136.465 101.452 137.265 101.386C138.065 101.32 138.835 101.053 139.504 100.61C140.823 99.6814 141.991 98.5558 142.968 97.2723C143.495 96.5624 144.15 95.9573 144.899 95.4881C145.28 95.2607 145.715 95.1406 146.158 95.1406C146.602 95.1406 147.037 95.2607 147.418 95.4881C147.601 95.6049 147.756 95.7592 147.875 95.9407C147.994 96.1222 148.073 96.3269 148.107 96.5412C148.14 96.7555 148.128 96.9745 148.071 97.1838C148.014 97.393 147.913 97.5878 147.774 97.755C147.774 97.0834 146.956 96.6636 146.305 96.8315C145.673 97.0912 145.148 97.5573 144.815 98.1538C144.309 98.8744 143.846 99.6244 143.43 100.4C143.094 100.968 142.846 101.584 142.695 102.226C142.652 103.022 142.769 103.818 143.04 104.568C143.31 105.318 143.728 106.006 144.269 106.592C144.659 107.056 144.971 107.581 145.193 108.145C145.353 109.051 145.281 109.982 144.983 110.853C144.217 114.551 144.025 118.346 144.416 122.103C144.514 122.463 144.526 122.841 144.449 123.206C144.372 123.571 144.21 123.912 143.975 124.202C143.57 124.519 143.062 124.676 142.548 124.643C140.134 124.643 137.741 124.097 135.307 124.16C133.815 124.321 132.315 124.398 130.815 124.391C130.705 124.405 130.594 124.39 130.491 124.348C130.389 124.306 130.299 124.239 130.229 124.153C130.16 124.067 130.114 123.965 130.095 123.856C130.076 123.747 130.086 123.635 130.122 123.531C130.794 119.366 130.9 115.13 130.437 110.937C129.932 109.035 129.623 107.087 129.513 105.122C129.494 104.691 129.573 104.26 129.744 103.863C129.938 103.48 130.185 103.127 130.479 102.814C132.056 100.911 133.189 98.6811 133.795 96.2857" fill="white"/>
<path opacity="0.1" d="M143.346 113.581C143.361 113.932 143.296 114.281 143.153 114.601C143.011 114.922 142.797 115.205 142.527 115.429C142.353 115.507 142.184 115.598 142.023 115.701C141.708 115.995 141.75 116.499 141.687 116.919C141.419 117.689 141.005 118.402 140.47 119.018C140.216 119.345 140.079 119.748 140.079 120.162C140.079 120.576 140.216 120.978 140.47 121.306C140.848 121.683 141.478 121.746 141.792 122.187C142.107 122.628 141.792 124.055 142.443 124.496C142.655 124.586 142.892 124.597 143.111 124.528C143.33 124.459 143.518 124.313 143.639 124.118C143.865 123.721 143.987 123.274 143.996 122.817C144.486 118.101 144.934 113.365 145.34 108.607C145.396 108.358 145.388 108.099 145.319 107.853C145.249 107.607 145.119 107.383 144.941 107.2C144.626 106.76 144.206 105.92 143.744 105.689C143.22 106.466 143.618 108.145 143.618 109.048C143.535 110.58 143.472 112.091 143.346 113.581Z" fill="#020202"/>
<path d="M131.843 85.9797C131.568 86.3343 131.387 86.7533 131.319 87.1971C131.371 87.5103 131.485 87.81 131.654 88.0787C131.956 88.7403 132.134 89.4518 132.179 90.1776C132.161 90.7229 132.299 91.2619 132.578 91.7309C132.823 91.9635 133.114 92.1417 133.432 92.2539C133.75 92.366 134.089 92.4095 134.425 92.3816H135.978C136.164 92.3296 136.36 92.3296 136.545 92.3816C136.716 92.4697 136.856 92.6091 136.944 92.7804C137.426 93.914 137.717 95.1198 137.804 96.3487C137.848 96.5571 137.941 96.7516 138.077 96.9154C138.184 97.0683 138.329 97.1911 138.497 97.2722C139.59 97.7026 140.805 97.7026 141.897 97.2722C142.179 97.1873 142.423 97.0097 142.59 96.7685C142.697 96.4627 142.697 96.1297 142.59 95.8239C142.471 94.9789 142.288 94.1439 142.044 93.3261C141.607 92.2529 141.379 91.1058 141.373 89.9468C141.373 88.9182 141.939 87.9737 142.107 86.9662C142.23 85.9023 142.008 84.8272 141.476 83.8981C140.943 82.9691 140.128 82.2348 139.148 81.8027C138.314 81.4734 137.417 81.3363 136.523 81.4018C135.629 81.4672 134.761 81.7334 133.984 82.1805C133.418 82.4744 132.956 82.6213 132.683 83.23C132.41 83.8387 132.347 85.1191 131.843 85.9797Z" fill="#FFBBAB"/>
<path d="M131.99 79.7247C131.899 79.3394 131.849 78.9453 131.843 78.5493C131.843 77.206 132.62 75.6737 133.942 75.6317C134.887 75.6317 135.726 76.3454 136.692 76.3454C137.089 76.2917 137.482 76.2075 137.867 76.0935C138.876 75.8625 139.923 75.8625 140.932 76.0935C143.111 76.479 145.053 77.6988 146.347 79.4939C146.991 80.4092 147.354 81.4925 147.391 82.611C147.428 83.7295 147.138 84.8346 146.557 85.7908C145.864 86.8403 144.794 87.596 144.059 88.6245C143.707 89.2666 143.322 89.8902 142.905 90.4926C142.527 90.9333 141.645 91.647 141.016 91.3321C140.386 91.0173 140.344 89.9888 139.903 89.548C140.335 89.2067 140.749 88.8423 141.142 88.4565C141.333 88.2609 141.465 88.0157 141.525 87.7487C141.584 87.4817 141.568 87.2035 141.477 86.9453C141.226 86.4415 140.365 86.3366 140.155 86.9453C140.22 86.2384 140.122 85.526 139.867 84.8635C139.612 84.201 139.208 83.6061 138.686 83.1251C138.535 82.9378 138.35 82.7811 138.14 82.6633C137.911 82.6211 137.676 82.6211 137.447 82.6633C136.797 82.6633 136.167 82.6633 135.516 82.6633C134.404 82.6633 133.858 82.9782 133.061 82.0336C132.514 81.3673 132.145 80.5727 131.99 79.7247Z" fill="#FC682D"/>
<path d="M138.287 92.5915C138.461 92.5759 138.634 92.6286 138.77 92.7385C138.882 92.8823 138.941 93.0601 138.938 93.2422C139.022 94.1709 139.022 95.1052 138.938 96.0339C138.914 96.2806 138.851 96.5217 138.749 96.7475C138.688 96.8572 138.6 96.9495 138.494 97.0157C138.387 97.0818 138.265 97.1196 138.14 97.1254C137.867 97.1254 137.636 96.8945 137.342 96.8315C137.189 96.7984 137.03 96.8001 136.878 96.8364C136.725 96.8727 136.583 96.9428 136.461 97.0414C136.224 97.2463 136.013 97.4789 135.831 97.7341C135.366 98.3206 134.853 98.8681 134.299 99.3713C134.673 98.0964 135.239 96.886 135.978 95.782C136.146 95.4633 136.41 95.206 136.734 95.0474C136.986 95.0474 137.3 95.0474 137.468 94.7745C137.636 94.5016 137.468 93.9769 137.279 93.62C137.091 93.2632 136.608 92.7595 136.902 92.5076C137.196 92.2557 138.035 92.5706 138.287 92.5915Z" fill="#E0A194"/>
<path d="M158.521 87.6379C159.35 86.862 160.122 86.0272 160.83 85.1402C162.857 82.6077 163.967 79.4633 163.979 76.2195C163.905 75.8664 163.905 75.502 163.979 75.149C164.022 74.9773 164.114 74.8221 164.245 74.7027C164.376 74.5833 164.539 74.5049 164.713 74.4773C164.867 74.4983 165.022 74.4983 165.175 74.4773C165.406 74.4773 165.511 74.1624 165.7 73.9945C165.857 73.8958 166.039 73.8434 166.225 73.8434C166.41 73.8434 166.592 73.8958 166.749 73.9945C167.07 74.1972 167.349 74.4611 167.568 74.7711C167.904 75.2329 168.24 75.7157 168.533 76.1985C168.799 76.5683 168.959 77.0038 168.995 77.4579C168.907 78.19 168.538 78.8595 167.967 79.326C167.316 79.326 166.812 81.0681 166.644 81.4249C166.309 82.3695 165.931 83.314 165.511 84.2166C163.008 89.6736 159.306 94.4952 154.68 98.3218C153.127 99.6022 147.25 104.619 145.487 102.835C143.073 100.274 145.487 97.1883 147.586 95.866C151.562 93.593 155.236 90.8286 158.521 87.6379Z" fill="#FFBBAB"/>
<path d="M130.668 89.59H130.479C130.491 89.5766 130.505 89.5659 130.522 89.5585C130.538 89.5512 130.555 89.5474 130.573 89.5474C130.591 89.5474 130.609 89.5512 130.625 89.5585C130.641 89.5659 130.656 89.5766 130.668 89.59Z" fill="#2F1073"/>
<path d="M165.637 84.4475C165.569 85.5823 165.246 86.6872 164.692 87.6799C161.339 94.7179 155.607 100.345 148.509 103.569C148.102 103.701 147.734 103.932 147.439 104.241C147.225 104.536 147.075 104.872 146.998 105.227C145.382 111.524 145.738 117.947 144.584 124.244C144.546 124.807 144.316 125.341 143.933 125.756C143.379 126.148 142.693 126.306 142.023 126.196H140.659C137.418 126.021 134.188 125.678 130.983 125.168C130.419 125.139 129.887 124.899 129.492 124.496C129.221 123.996 129.146 123.412 129.282 122.859C129.433 118.535 129.258 114.206 128.758 109.908C128.579 107.813 128.579 105.706 128.758 103.611C129.021 102.564 129.021 101.468 128.758 100.421C128.637 100.115 128.467 99.8314 128.254 99.5812C127.337 98.7069 126.37 97.8869 125.357 97.1254C123.964 95.5433 122.971 93.6503 122.461 91.605C121.495 88.7084 120.488 85.8328 119.564 82.9362C118.871 80.8372 119.963 79.8507 121.537 79.0531C122.104 78.7592 122.734 78.4864 123.384 78.1925C123.941 80.4357 124.744 82.6108 125.777 84.6784C126.798 86.7206 128.446 88.3827 130.479 89.4221C130.445 89.4221 130.413 89.4354 130.39 89.459C130.366 89.4826 130.353 89.5146 130.353 89.548C130.353 89.6266 130.372 89.7039 130.408 89.7734C130.445 89.8429 130.498 89.9024 130.563 89.9468C131.969 91.2482 133.396 92.5286 134.761 93.851C135.024 94.1247 135.347 94.3332 135.705 94.4597C136.125 94.4597 137.573 94.0818 137.51 94.8585C137.52 94.8999 137.52 94.943 137.51 94.9844C137.51 95.2573 137.258 95.4672 137.217 95.74C137.209 95.9058 137.251 96.0701 137.337 96.212C137.423 96.354 137.549 96.4673 137.699 96.5377C137.998 96.6872 138.333 96.7456 138.665 96.7056C139.031 96.6835 139.392 96.6056 139.735 96.4747C140.302 96.2438 140.764 95.845 141.31 95.5721C142.142 95.2605 143.05 95.2093 143.912 95.4252C144.853 95.4959 145.799 95.4394 146.725 95.2573C149.403 94.6328 151.88 93.3403 153.924 91.5001C156.782 88.73 159.433 85.7556 161.859 82.6004C162.129 82.237 162.482 81.9422 162.887 81.7398C163.23 81.6265 163.598 81.6138 163.947 81.7031C164.297 81.7923 164.614 81.9799 164.86 82.2436C165.14 82.5338 165.354 82.8808 165.488 83.2611C165.622 83.6413 165.673 84.0459 165.637 84.4475Z" fill="white"/>
<path d="M165.637 84.4475C165.569 85.5823 165.246 86.6872 164.692 87.6799C161.339 94.7179 155.607 100.345 148.509 103.569C148.102 103.701 147.734 103.932 147.439 104.241C147.225 104.536 147.075 104.872 146.998 105.227C145.382 111.524 145.738 117.947 144.584 124.244C144.546 124.807 144.316 125.341 143.933 125.756C143.379 126.148 142.693 126.306 142.023 126.196H140.659C137.418 126.021 134.188 125.678 130.983 125.168C130.419 125.139 129.887 124.899 129.492 124.496C129.221 123.996 129.146 123.412 129.282 122.859C129.433 118.535 129.258 114.206 128.758 109.908C128.579 107.813 128.579 105.706 128.758 103.611C129.021 102.564 129.021 101.468 128.758 100.421C128.637 100.115 128.467 99.8314 128.254 99.5812C127.337 98.7069 126.37 97.8869 125.357 97.1254C123.964 95.5433 122.971 93.6503 122.461 91.605C121.495 88.7084 120.488 85.8328 119.564 82.9362C118.871 80.8372 119.963 79.8507 121.537 79.0531C122.104 78.7592 122.734 78.4864 123.384 78.1925C123.941 80.4357 124.744 82.6108 125.777 84.6784C126.798 86.7206 128.446 88.3827 130.479 89.4221C130.445 89.4221 130.413 89.4354 130.39 89.459C130.366 89.4826 130.353 89.5146 130.353 89.548C130.353 89.6266 130.372 89.7039 130.408 89.7734C130.445 89.8429 130.498 89.9024 130.563 89.9468C131.969 91.2482 133.396 92.5286 134.761 93.851C135.024 94.1247 135.347 94.3332 135.705 94.4597C136.125 94.4597 137.573 94.0818 137.51 94.8585C137.52 94.8999 137.52 94.943 137.51 94.9844C137.51 95.2573 137.258 95.4672 137.217 95.74C137.209 95.9058 137.251 96.0701 137.337 96.212C137.423 96.354 137.549 96.4673 137.699 96.5377C137.998 96.6872 138.333 96.7456 138.665 96.7056C139.031 96.6835 139.392 96.6056 139.735 96.4747C140.302 96.2438 140.764 95.845 141.31 95.5721C142.142 95.2605 143.05 95.2093 143.912 95.4252C144.853 95.4959 145.799 95.4394 146.725 95.2573C149.403 94.6328 151.88 93.3403 153.924 91.5001C156.782 88.73 159.433 85.7556 161.859 82.6004C162.129 82.237 162.482 81.9422 162.887 81.7398C163.23 81.6265 163.598 81.6138 163.947 81.7031C164.297 81.7923 164.614 81.9799 164.86 82.2436C165.14 82.5338 165.354 82.8808 165.488 83.2611C165.622 83.6413 165.673 84.0459 165.637 84.4475Z" fill="url(#paint0_linear)"/>
<path d="M128.8 100.337C128.632 100.085 128.485 99.8121 128.296 99.5812C127.379 98.7069 126.412 97.8869 125.399 97.1254C124.006 95.5434 123.013 93.6503 122.503 91.6051C121.537 88.7084 120.53 85.8328 119.606 82.9362C118.913 80.8372 120.005 79.8507 121.579 79.0531C121.902 79.3542 122.159 79.7186 122.335 80.1236C122.661 81.0134 122.893 81.935 123.027 82.8733C123.545 85.0156 124.441 87.0485 125.672 88.8764C126.91 90.8494 128.086 92.8644 129.324 94.8375C129.397 94.9477 129.454 95.0679 129.492 95.1943C129.543 95.3869 129.543 95.5894 129.492 95.782C129.244 96.5585 129.089 97.3618 129.03 98.1749C128.926 98.6786 129.198 100.064 128.8 100.337Z" fill="url(#paint1_linear)"/>
<path d="M165.637 84.4475C165.569 85.5823 165.246 86.6872 164.692 87.68C161.339 94.7179 155.607 100.345 148.509 103.569C148.102 103.701 147.734 103.932 147.439 104.241C147.225 104.536 147.075 104.872 146.998 105.227C145.382 111.524 145.739 117.947 144.584 124.244C144.546 124.808 144.316 125.341 143.933 125.756C143.379 126.148 142.693 126.306 142.023 126.196H140.659C140.265 126.169 139.887 126.031 139.568 125.798C139.264 125.508 139.071 125.122 139.022 124.706C138.738 122.324 138.632 119.925 138.707 117.528C138.751 116.32 138.508 115.119 137.997 114.025C137.486 112.93 136.722 111.972 135.768 111.231C135.284 110.999 134.838 110.694 134.446 110.328C134.261 110.136 134.158 109.881 134.158 109.614C134.158 109.348 134.261 109.092 134.446 108.901C134.645 108.768 134.878 108.696 135.118 108.691C136.485 108.594 137.845 108.412 139.19 108.145C140.54 107.896 141.747 107.146 142.569 106.046C143.262 104.997 143.409 103.653 144.164 102.646C145.193 101.605 146.496 100.877 147.921 100.547C152.865 98.6169 157.24 95.4689 160.641 91.3952C162.153 89.569 163.307 86.2736 165.175 84.9093C165.306 84.7339 165.462 84.5783 165.637 84.4475Z" fill="url(#paint2_linear)"/>
<path d="M59.68 165.615C51.0097 171.877 41.8092 177.369 32.1832 182.029L30.8189 182.197H30.4411C30.0726 182.181 29.7122 182.085 29.3848 181.915C29.0574 181.745 28.7709 181.506 28.5452 181.215C28.3195 180.923 28.16 180.586 28.0778 180.226C27.9956 179.867 27.9926 179.494 28.0692 179.133C28.1577 178.37 28.2909 177.613 28.468 176.866C29.6854 171.157 30.9098 165.454 32.1412 159.759C32.2107 159.551 32.207 159.325 32.1306 159.119C32.0543 158.913 31.91 158.739 31.7214 158.626L9.74504 141.561C9.60567 141.425 9.42499 141.338 9.23128 141.315C9.03758 141.293 8.84178 141.335 8.67456 141.435C7.37318 142.107 6.02983 142.715 4.68648 143.324C-0.0362463 145.549 -4.59105 147.648 -9.2508 149.747C-9.55648 149.901 -9.8913 149.99 -10.2334 150.006C-10.5755 150.022 -10.9172 149.966 -11.2361 149.841C-11.555 149.716 -11.844 149.526 -12.0843 149.282C-12.3245 149.038 -12.5105 148.746 -12.6302 148.425L-12.903 147.795C-12.903 147.795 -12.903 147.564 -12.903 147.459C-12.6944 145.773 -12.4002 144.099 -12.0215 142.443C-9.67437 133.731 -6.79331 125.172 -3.39462 116.814C-1.80517 112.316 1.30561 108.515 5.40013 106.067C8.50656 104.311 11.9315 103.191 15.4753 102.772C18.2161 102.377 20.9773 102.139 23.7453 102.058C24.6059 102.058 25.4875 102.058 26.369 102.058C26.5515 102.033 26.7272 101.972 26.8858 101.878C27.0443 101.784 27.1826 101.66 27.2926 101.512C29.3916 98.4478 31.3646 95.2153 33.5895 92.2767C36.6893 87.8539 40.0245 83.6008 43.5807 79.5359C47.288 75.76 51.183 72.1732 55.2511 68.7891C59.3646 65.1484 63.7894 61.8754 68.4747 59.0078C75.5099 54.9648 83.0472 51.8666 90.8919 49.7932C92.4032 49.3314 93.9354 48.9326 95.4677 48.5128L98.6162 48.177H99.1829C99.9177 48.2641 100.612 48.5592 101.185 49.0278C101.758 49.4963 102.185 50.1187 102.415 50.8217C102.425 50.9124 102.425 51.0039 102.415 51.0946C102.558 51.7873 102.656 52.4884 102.709 53.1936C103.017 56.8783 102.947 60.5849 102.499 64.2553C102.041 70.8872 100.736 77.4332 98.6162 83.7339C96.4912 89.5953 93.9665 95.3039 91.0598 100.82C88.7669 105.531 86.0553 110.027 82.9577 114.253C78.0179 120.723 72.7349 126.924 67.1314 132.829C66.9569 132.987 66.8336 133.193 66.7775 133.421C66.7214 133.649 66.735 133.889 66.8165 134.11C67.1943 135.747 67.5512 137.384 67.845 139.021C68.596 142.416 68.8785 145.898 68.6846 149.369C68.5598 152.593 67.68 155.742 66.1161 158.564C64.5521 161.386 62.3476 163.801 59.68 165.615Z" fill="white"/>
<path d="M23.0526 150.293L9.82899 139.987C9.82899 139.987 15.5172 122.46 23.7453 102.058C24.6059 102.058 25.4874 102.058 26.369 102.058C26.5515 102.033 26.7272 101.972 26.8858 101.878C27.0443 101.784 27.1826 101.66 27.2926 101.512C29.3916 98.4478 31.3646 95.2153 33.5895 92.2767C36.6893 87.8539 40.0245 83.6008 43.5807 79.5359C47.288 75.76 51.183 72.1732 55.2511 68.7891C59.3646 65.1484 63.7894 61.8754 68.4747 59.0078C75.5099 54.9648 83.0472 51.8666 90.8919 49.7932C92.4032 49.3314 93.9354 48.9326 95.4677 48.5128L98.6162 48.177H99.1829C99.9177 48.2641 100.612 48.5592 101.185 49.0278C101.758 49.4963 102.185 50.1187 102.415 50.8217C102.425 50.9124 102.425 51.0039 102.415 51.0946C94.922 57.1817 40.7891 101.911 23.0526 150.293Z" fill="url(#paint3_linear)"/>
<path d="M38.2284 111.231C39.9 110.35 41.4001 109.177 42.6572 107.767C45.239 111.189 46.1415 115.555 47.8837 119.459C48.2107 120.419 48.8451 121.246 49.6888 121.809C50.4445 122.126 51.2653 122.255 52.0817 122.187C53.6979 122.187 55.3141 122.187 56.9303 122.187C58.6532 122.195 60.3574 121.83 61.9259 121.117C62.7865 120.697 63.6261 119.857 63.3742 119.018C63.1223 118.178 61.9049 117.8 60.9184 117.8C59.6771 117.88 58.4309 117.766 57.2242 117.465C55.7036 116.806 54.4939 115.589 53.8448 114.064C53.1723 112.645 52.6245 111.17 52.2076 109.656C51.3448 107.085 50.2779 104.586 49.0171 102.184C48.3031 100.688 47.3295 99.3308 46.1415 98.1749C45.5477 97.6024 44.8426 97.1579 44.0699 96.8691C43.2972 96.5802 42.4735 96.4531 41.6497 96.4957C38.6691 96.8105 36.7381 99.8331 33.9674 100.967C32.6471 101.291 31.3609 101.741 30.1262 102.31C29.3437 102.881 28.6746 103.593 28.1532 104.409C26.5281 106.69 25.3396 109.252 24.6479 111.965C29.1241 113.293 33.9215 113.033 38.2284 111.231Z" fill="url(#paint4_linear)"/>
<path d="M42.6991 94.7325C42.6991 94.7325 46.8971 94.3547 48.4503 95.8869C50.8696 98.6892 52.5507 102.051 53.3409 105.668C53.7188 107.054 54.1805 108.397 54.4954 109.866C54.6933 111.166 55.0749 112.431 55.6288 113.623C55.9697 114.29 56.5456 114.806 57.2451 115.072C57.7953 115.198 58.3614 115.24 58.9242 115.198C59.6267 115.191 60.3286 115.24 61.0232 115.345C61.1576 115.355 61.2874 115.398 61.4011 115.47C61.4801 115.575 61.5307 115.698 61.548 115.827C61.5891 116.189 61.5352 116.556 61.3917 116.891C61.2481 117.226 61.0199 117.517 60.7294 117.737C58.9533 118.589 56.9423 118.818 55.0201 118.388C52.7113 117.611 51.9766 113.33 51.137 111.335C49.9196 108.418 48.6182 105.563 47.2329 102.73C47.0864 102.354 46.8568 102.017 46.5612 101.743C46.2129 101.514 45.819 101.364 45.4068 101.302L40.3482 100.211C40.831 98.3847 42.1743 96.5376 42.6991 94.7325Z" fill="#FFBBAB"/>
<path d="M65.2843 108.565C72.1354 108.565 77.6893 103.011 77.6893 96.1598C77.6893 89.3087 72.1354 83.7548 65.2843 83.7548C58.4332 83.7548 52.8793 89.3087 52.8793 96.1598C52.8793 103.011 58.4332 108.565 65.2843 108.565Z" fill="#2F1073"/>
<path d="M65.2842 104.409C69.84 104.409 73.5332 100.716 73.5332 96.1598C73.5332 91.604 69.84 87.9108 65.2842 87.9108C60.7283 87.9108 57.0351 91.604 57.0351 96.1598C57.0351 100.716 60.7283 104.409 65.2842 104.409Z" fill="#473F47"/>
<path d="M28.6989 102.793L9.03135 141.75L-9.62866 150.146C-9.62866 150.146 -13.2599 152.56 -12.9031 147.606C-12.5463 142.652 -2.9119 114.82 -0.0362825 110.958C2.83933 107.096 11.5921 100.043 28.6989 102.793Z" fill="#2F1073"/>
<path d="M66.6486 133.27L32.1412 159.759L27.1037 183.142C27.8582 184.141 28.9369 184.847 30.1547 185.138C31.3725 185.429 32.6536 185.287 33.7785 184.737C38.5012 183.163 62.9124 166.896 65.9559 163.222C68.9995 159.549 73.5753 149.138 66.6486 133.27Z" fill="#2F1073"/>
<path d="M85.8123 51.4304L102.436 64.2762C102.436 64.2762 103.297 50.9686 102.436 48.177C101.576 45.3853 85.8123 51.4304 85.8123 51.4304Z" fill="#2F1073"/>
<path d="M9.84995 140.008L6.55453 145.864L28.6989 162.866L33.7994 158.5L9.84995 140.008Z" fill="#2F1073"/>
<path opacity="0.36" d="M6.55461 145.843C6.55461 145.843 -57.3806 213.934 -15.4428 245.209C26.495 276.484 74.9606 255.872 74.9606 255.872C74.9606 255.872 5.69402 271.173 -4.40211 232.321C-10.3003 209.589 28.6989 162.866 28.6989 162.866L6.55461 145.843Z" fill="url(#paint5_linear)"/>
<path d="M142.149 206.42L157.724 215.886H118.179L133.753 205.811V197.604L131.15 194.518V184.737C105.669 175.921 106.277 121.264 106.277 121.264H169.625C169.625 121.264 169.625 121.474 169.625 121.914C170.003 127.917 172.123 173.927 148.257 183.96C147.317 184.365 146.349 184.702 145.361 184.968V193.364L143.262 196.072L142.149 197.478V206.42Z" fill="#2F1073"/>
<path d="M108.964 168.638C108.195 168.664 107.429 168.539 106.709 168.268C105.988 167.998 105.328 167.589 104.766 167.064C104.088 166.323 103.633 165.407 103.451 164.42C103.269 163.432 103.368 162.414 103.738 161.48L106.634 162.32C106.45 162.75 106.387 163.222 106.454 163.685C106.52 164.148 106.714 164.584 107.012 164.944C107.458 165.291 107.983 165.521 108.54 165.612C109.098 165.704 109.669 165.655 110.203 165.468C110.593 165.393 110.96 165.224 111.271 164.975C111.582 164.726 111.827 164.406 111.987 164.041C111.735 163.16 107.789 159.843 104.724 157.052C96.3283 149.705 85.8333 140.574 89.2547 133.228C89.727 132.072 90.4687 131.047 91.418 130.236C92.3674 129.425 93.4968 128.854 94.712 128.568C101.429 127.015 110.329 134.236 110.706 134.55L108.796 136.88C106.55 135.033 99.7496 130.583 95.3837 131.507C94.6167 131.695 93.9067 132.067 93.3145 132.59C92.7224 133.112 92.2656 133.771 91.9833 134.508C89.5065 139.798 99.8545 148.802 106.676 154.764C112.763 160.074 115.429 162.509 114.904 164.755C114.633 165.652 114.129 166.46 113.443 167.098C112.757 167.736 111.914 168.181 111 168.386C110.334 168.553 109.651 168.638 108.964 168.638Z" fill="#2F1073"/>
<path d="M168.911 168.638C168.237 168.64 167.566 168.548 166.917 168.365C165.999 168.163 165.152 167.72 164.462 167.082C163.772 166.444 163.265 165.633 162.992 164.734C162.467 162.488 165.091 160.053 171.22 154.743C178.063 148.781 188.411 139.777 185.913 134.487C185.642 133.804 185.21 133.196 184.655 132.714C184.1 132.232 183.437 131.89 182.723 131.717C177.958 130.667 170.129 135.915 167.589 138.014L165.784 135.663C166.225 135.327 176.279 127.267 183.499 128.799C184.667 129.063 185.755 129.602 186.672 130.373C187.589 131.143 188.307 132.122 188.768 133.228C192.21 140.574 181.715 149.705 173.298 157.051C170.171 159.78 166.288 163.16 166.036 164.251C166.204 164.776 167.064 165.259 167.82 165.468C168.349 165.661 168.918 165.713 169.473 165.621C170.028 165.53 170.551 165.296 170.989 164.944C171.267 164.575 171.439 164.139 171.487 163.68C171.535 163.222 171.457 162.759 171.262 162.341L174.18 161.501C174.549 162.436 174.646 163.457 174.461 164.444C174.275 165.432 173.814 166.348 173.13 167.085C172.565 167.61 171.9 168.017 171.176 168.284C170.452 168.551 169.682 168.671 168.911 168.638Z" fill="#2F1073"/>
<path opacity="0.28" d="M148.299 183.981C147.359 184.386 146.391 184.723 145.403 184.989V185.199H131.15V184.737C105.669 175.921 106.277 121.264 106.277 121.264H121.81C121.81 121.264 114.925 157.471 138.077 179.406C143.01 184.107 144.794 182.932 148.299 183.981Z" fill="white"/>
<path d="M156.779 185.178C155.819 185.319 154.843 185.319 153.883 185.178H156.779Z" fill="#2F1073"/>
<path opacity="0.28" d="M135.81 185.199V194.33L138.077 197.373V205.832L131.948 215.928H120.152L135.432 206.399V197.562L132.41 193.868V184.674L135.81 185.199Z" fill="white"/>
<path d="M131.15 185.22V184.758C105.669 175.942 106.277 121.285 106.277 121.285H110.79C110.79 121.285 108.02 169.414 132.41 184.674L133.249 185.22H131.15Z" fill="url(#paint6_linear)"/>
<path d="M145.403 184.989V193.385L143.304 196.093C138.854 194.56 138.161 191.286 145.403 184.989Z" fill="#2F1073"/>
<path d="M148.299 183.981C147.359 184.386 146.391 184.723 145.403 184.989C168.995 164.524 156.779 121.285 156.779 121.285L169.667 121.935C169.982 127.938 172.081 173.948 148.299 183.981Z" fill="url(#paint7_linear)"/>
<path d="M30.9448 65.9134L32.4141 62.9119C33.7801 59.9444 35.3878 57.0941 37.2208 54.39C41.02 49.1635 42.993 42.8456 46.2674 37.2623C46.4822 36.9589 46.6126 36.604 46.6453 36.2337C46.6453 35.4151 45.6797 34.9534 44.8611 34.7435C43.7861 34.3854 42.6378 34.3059 41.5237 34.5126C40.9686 34.6236 40.4573 34.8927 40.0514 35.2874C39.6455 35.6821 39.3623 36.1857 39.2358 36.7375C39.2221 37.3775 39.2713 38.0173 39.3828 38.6476C39.3178 40.4343 38.7019 42.1572 37.6196 43.5802L29.3496 56.9718C28.2105 58.4719 27.4866 60.2455 27.2506 62.1143C27.2988 63.0886 27.7005 64.0119 28.3805 64.7112C29.0606 65.4106 29.9723 65.838 30.9448 65.9134Z" fill="#FFBBAB"/>
<path d="M30.9449 65.9134C31.615 64.892 31.8633 63.6507 31.6376 62.4501C31.3965 60.871 31.3965 59.2645 31.6376 57.6854C32.1371 56.1682 32.224 54.5455 31.8895 52.9836C31.8895 52.9836 31.8895 52.8367 31.7635 52.7947C31.7133 52.763 31.655 52.7462 31.5956 52.7462C31.5362 52.7462 31.478 52.763 31.4277 52.7947C30.9155 53.1027 30.5345 53.5883 30.3572 54.1591C29.4756 56.2581 26.7889 59.8054 27.1667 62.0933C27.2119 63.0847 27.6233 64.0242 28.3212 64.7299C29.0191 65.4356 29.954 65.8573 30.9449 65.9134Z" fill="url(#paint8_linear)"/>
<path d="M24.0811 67.2778L28.405 61.7994L33.5475 66.5012L28.6989 70.8671L24.0811 67.2778Z" fill="#2F1073"/>
<path d="M24.0811 67.2778L28.405 61.7994L33.5475 66.5012L28.6989 70.8671L24.0811 67.2778Z" fill="url(#paint9_linear)"/>
<path d="M35.1428 74.0365L37.1368 74.7291C37.8295 74.96 39.2358 75.8836 39.8865 75.2539C40.5372 74.6242 39.8865 72.7141 39.8865 72.0215C39.5555 69.5365 38.9574 67.0945 38.1024 64.738C37.7847 64.1749 37.5887 63.5514 37.5273 62.9078C37.4658 62.2641 37.5402 61.6148 37.7456 61.0018C37.926 60.6806 38.1879 60.4126 38.5047 60.2247C38.8216 60.0368 39.1823 59.9356 39.5507 59.9313C39.9142 59.9372 40.2708 60.0322 40.5891 60.2078C40.9075 60.3835 41.1779 60.6344 41.3768 60.9388C41.6613 61.6122 41.8656 62.3167 41.9855 63.0378C42.2088 63.5082 42.296 64.0317 42.2374 64.5491C42.1216 64.7792 42.0234 65.0178 41.9435 65.2627C41.9291 65.5364 41.9794 65.8097 42.0905 66.0603L44.7142 72.966C45.4411 74.4418 45.7185 76.0986 45.5118 77.7307C45.1475 78.8039 44.4305 79.7222 43.4776 80.3358C42.5247 80.9495 41.3921 81.2224 40.2643 81.1101C37.7618 80.8618 35.3529 80.0277 33.2327 78.6752C33.0018 78.5493 32.729 78.3184 32.8129 78.0665C32.8765 77.9571 32.9716 77.8693 33.0858 77.8147C33.7646 77.4226 34.3346 76.867 34.744 76.1984C34.9724 75.8931 35.1272 75.5391 35.1964 75.1641C35.2656 74.7891 35.2472 74.4032 35.1428 74.0365Z" fill="#FFBBAB"/>
<path d="M29.2236 62.8069C29.1736 63.0945 29.0341 63.359 28.8248 63.5626C28.5015 63.7651 28.1345 63.8875 27.7543 63.9194C27.3633 63.9631 26.9923 64.1158 26.6839 64.3602C26.6361 64.447 26.611 64.5445 26.611 64.6435C26.611 64.7426 26.6361 64.8401 26.6839 64.9269L27.2506 67.3407C27.313 67.5173 27.313 67.7099 27.2506 67.8865C27.1387 68.0953 26.9508 68.2531 26.7258 68.3273C25.8862 68.7261 24.8158 69.0829 24.0811 68.5162C23.7112 68.183 23.4544 67.7428 23.3465 67.2568C22.2656 64.577 21.6139 61.7436 21.4154 58.8608C21.3365 57.9926 21.4456 57.1176 21.7354 56.2953C22.0252 55.4731 22.4888 54.723 23.0946 54.0961C24.274 53.1393 25.7799 52.68 27.2926 52.8157C27.6313 52.8323 27.9611 52.9306 28.2535 53.1025C28.5459 53.2743 28.7924 53.5144 28.9718 53.8023C29.2026 54.2221 28.9718 54.6628 29.1187 55.1246C29.1848 55.7977 29.3041 56.4644 29.4755 57.1187C29.5616 57.4326 29.6667 57.7411 29.7904 58.0422C29.9314 58.2902 30.0306 58.5597 30.0842 58.8398C30.086 59.3556 29.9712 59.865 29.7484 60.3301C29.5381 60.9002 29.3903 61.4913 29.3076 62.0933C29.3496 62.3871 29.3496 62.597 29.2236 62.8069Z" fill="#FFBBAB"/>
<path d="M29.8744 52.5429C29.7903 53.0774 29.5759 53.5829 29.2501 54.0149C28.9243 54.4469 28.4971 54.7919 28.0063 55.0197C25.7394 56.0902 22.507 55.9433 23.3676 59.2177C23.8629 60.496 24.0562 61.8715 23.9324 63.2369C23.8086 64.6022 23.3711 65.9205 22.6539 67.0889C22.1292 67.8655 21.4785 68.5372 21.0167 69.3558C20.261 70.6152 20.0302 72.1475 19.2116 73.3649C17.5743 75.7787 14.2579 76.2825 11.3613 76.2825C10.2533 76.2586 9.15238 76.4659 8.1289 76.8912C5.75704 78.0666 4.68656 81.5509 2.06282 81.6769C-0.560912 81.8028 -1.46348 78.3815 -2.93277 76.7023C-3.93646 75.6917 -4.61169 74.4016 -4.8701 73.001C-5.12852 71.6003 -4.95807 70.1542 -4.38107 68.852C-1.67337 63.3107 7.16337 63.6466 10.5008 58.3571C12.5578 55.2926 12.5578 51.0946 16.126 49.1216C18.0871 48.2088 20.2403 47.7854 22.4009 47.8878C24.5616 47.9902 26.6651 48.6152 28.5311 49.7093C29.0235 49.9815 29.418 50.4014 29.659 50.9098C29.9001 51.4182 29.9754 51.9894 29.8744 52.5429Z" fill="#473F47"/>
<path d="M33.7575 91.9198C34.0123 92.1271 34.3044 92.2838 34.618 92.3816C35.7169 92.6514 36.8582 92.7014 37.9764 92.5285C39.5916 92.4446 41.2099 92.4446 42.8251 92.5285C43.2174 92.5084 43.6063 92.6112 43.9375 92.8224C44.4833 93.2842 44.3154 94.1448 44.0845 94.8164C43.0784 97.8718 41.9083 100.871 40.5792 103.8C40.1201 105.08 39.3221 106.212 38.2703 107.075C37.4395 107.59 36.51 107.926 35.5416 108.061C33.5951 108.46 31.625 108.734 29.6434 108.88C27.714 109.161 25.7443 108.899 23.9552 108.124C22.0443 106.972 20.6359 105.144 20.0091 103.002C19.2053 100.939 19.0087 98.6884 19.4424 96.5166C19.9671 94.2077 21.0166 93.5361 20.3659 91.0593C19.5044 87.9874 18.9006 84.849 18.5608 81.6768C18.2879 78.7974 18.5585 75.8924 19.3584 73.1129C19.6761 71.8259 20.216 70.6041 20.9536 69.5026C21.7069 68.4211 22.8123 67.6346 24.0811 67.2777C24.7102 67.1158 25.3708 67.1218 25.9969 67.2949C26.623 67.468 27.1928 67.8022 27.6494 68.2642C30.1052 70.93 33.4636 71.0769 36.2553 73.3648C36.4185 73.4696 36.5436 73.6241 36.6121 73.8056C36.6848 73.9947 36.6848 74.2041 36.6121 74.3933L34.786 78.7802C34.6059 79.2524 34.3735 79.703 34.0933 80.1235C33.8414 80.4804 33.5266 80.7742 33.2957 81.131C32.6618 82.2037 32.3418 83.4328 32.3721 84.6783C32.3511 86.7773 31.8474 90.4296 33.7575 91.9198Z" fill="#2F1073"/>
<path d="M31.0917 94.7325C30.7598 94.8949 30.391 94.9669 30.0224 94.9411C29.6539 94.9153 29.2987 94.7927 28.9927 94.5856C27.5234 93.4941 28.6568 92.7385 28.9927 91.605C29.4423 90.0375 29.5637 88.394 29.3495 86.7774C29.1186 83.6499 28.8667 80.4804 28.6358 77.3739C28.7618 78.1505 32.456 79.242 33.9043 80.2285C33.6524 80.5854 33.3376 80.8792 33.1067 81.236C31.4695 83.6289 32.3301 88.4146 32.372 91.1223C32.477 92.4236 32.3091 94.0609 31.0917 94.7325Z" fill="url(#paint10_linear)"/>
<path d="M48.1145 54.348C48.7396 56.7428 48.7396 59.2578 48.1145 61.6525C48.0024 61.7656 47.8661 61.8518 47.7157 61.9044C47.6001 61.9444 47.4745 61.9444 47.3589 61.9044C46.4144 61.7155 41.0619 58.2102 34.765 60.4141C34.4463 60.5333 34.1052 60.5806 33.7661 60.5526C33.427 60.5246 33.0982 60.422 32.8034 60.2521C32.5086 60.0822 32.255 59.8493 32.0607 59.57C31.8664 59.2906 31.7362 58.9718 31.6795 58.6363C31.6228 58.3008 31.641 57.9569 31.7327 57.6293C31.8244 57.3016 31.9874 56.9982 32.21 56.7409C32.4326 56.4836 32.7093 56.2787 33.0204 56.1408C33.3315 56.0029 33.6692 55.9354 34.0093 55.9433C34.0093 55.9433 42.2584 53.1936 44.0425 48.3029C44.2734 47.5683 44.7352 47.2954 45.2599 47.3794C45.5901 47.4449 45.8996 47.5889 46.1625 47.7992C47.2148 49.8417 47.8768 52.0627 48.1145 54.348Z" fill="#2F1073"/>
<path d="M48.1146 54.348C48.7396 56.7428 48.7396 59.2578 48.1146 61.6525C48.0846 61.7156 48.0406 61.771 47.9861 61.8146C47.9316 61.8583 47.8678 61.889 47.7997 61.9044C46.9601 61.9044 45.7007 58.7559 45.113 54.8728C44.5253 50.9897 44.5673 47.9461 45.2599 47.3794H45.4279C45.6588 47.3794 45.8896 47.5263 46.1625 47.8832C47.2049 49.8998 47.8667 52.0914 48.1146 54.348Z" fill="url(#paint11_linear)"/>
<path d="M60.3517 114.862C60.0665 114.945 59.8216 115.13 59.663 115.381C59.5045 115.632 59.4434 115.933 59.4911 116.226C59.4911 116.562 59.89 116.898 59.743 117.213C59.6921 117.299 59.6221 117.372 59.5384 117.426C59.4547 117.481 59.3595 117.516 59.2603 117.528C57.2915 118.13 55.1701 117.988 53.2991 117.129C53.2533 117.294 53.2524 117.469 53.2967 117.635C53.341 117.801 53.4288 117.952 53.551 118.073C53.8384 118.606 54.2669 119.049 54.7894 119.354C55.1379 119.488 55.5075 119.559 55.8809 119.564C58.8105 119.525 61.6532 118.563 64.004 116.814C64.228 116.673 64.4267 116.496 64.5917 116.289C64.6624 116.176 64.6999 116.045 64.6999 115.911C64.6999 115.778 64.6624 115.647 64.5917 115.533C64.4657 115.219 64.0879 115.114 63.7521 115.051C63.1677 114.964 62.5792 114.908 61.9889 114.883C61.4503 114.765 60.8932 114.758 60.3517 114.862Z" fill="#2F1073"/>
<defs>
<linearGradient id="paint0_linear" x1="137.217" y1="146.787" x2="143.472" y2="71.7276" gradientUnits="userSpaceOnUse">
<stop offset="0.01"/>
<stop offset="0.08" stop-opacity="0.69"/>
<stop offset="0.21" stop-opacity="0.32"/>
<stop offset="1" stop-opacity="0"/>
</linearGradient>
<linearGradient id="paint1_linear" x1="1154.45" y1="1584.03" x2="1516.14" y2="1040.29" gradientUnits="userSpaceOnUse">
<stop offset="0.01"/>
<stop offset="0.08" stop-opacity="0.69"/>
<stop offset="0.21" stop-opacity="0.32"/>
<stop offset="1" stop-opacity="0"/>
</linearGradient>
<linearGradient id="paint2_linear" x1="-2474.35" y1="13313.9" x2="-3448.75" y2="12573.2" gradientUnits="userSpaceOnUse">
<stop offset="0.01"/>
<stop offset="0.08" stop-opacity="0.69"/>
<stop offset="0.21" stop-opacity="0.32"/>
<stop offset="1" stop-opacity="0"/>
</linearGradient>
<linearGradient id="paint3_linear" x1="-35.3202" y1="80.1026" x2="161.733" y2="119.291" gradientUnits="userSpaceOnUse">
<stop offset="0.01"/>
<stop offset="0.13" stop-opacity="0.69"/>
<stop offset="0.25" stop-opacity="0.32"/>
<stop offset="1" stop-opacity="0"/>
</linearGradient>
<linearGradient id="paint4_linear" x1="2757.28" y1="1368.72" x2="2659.23" y2="2571.26" gradientUnits="userSpaceOnUse">
<stop offset="0.01"/>
<stop offset="0.13" stop-opacity="0.69"/>
<stop offset="0.25" stop-opacity="0.32"/>
<stop offset="1" stop-opacity="0"/>
</linearGradient>
<linearGradient id="paint5_linear" x1="2632.87" y1="7674.9" x2="13008.1" y2="26286.8" gradientUnits="userSpaceOnUse">
<stop offset="0.01"/>
<stop offset="0.08" stop-opacity="0.69"/>
<stop offset="0.21" stop-opacity="0.32"/>
<stop offset="1" stop-opacity="0"/>
</linearGradient>
<linearGradient id="paint6_linear" x1="2013.83" y1="6112.01" x2="3827.23" y2="5973.68" gradientUnits="userSpaceOnUse">
<stop offset="0.01"/>
<stop offset="0.13" stop-opacity="0.69"/>
<stop offset="0.25" stop-opacity="0.32"/>
<stop offset="1" stop-opacity="0"/>
</linearGradient>
<linearGradient id="paint7_linear" x1="3885.1" y1="5987.81" x2="1924.34" y2="5882.51" gradientUnits="userSpaceOnUse">
<stop offset="0.01"/>
<stop offset="0.13" stop-opacity="0.69"/>
<stop offset="0.25" stop-opacity="0.32"/>
<stop offset="1" stop-opacity="0"/>
</linearGradient>
<linearGradient id="paint8_linear" x1="907.237" y1="-1705.57" x2="944.804" y2="-1716.69" gradientUnits="userSpaceOnUse">
<stop offset="0.01"/>
<stop offset="0.13" stop-opacity="0.69"/>
<stop offset="0.25" stop-opacity="0.32"/>
<stop offset="1" stop-opacity="0"/>
</linearGradient>
<linearGradient id="paint9_linear" x1="2574.98" y1="-1352.51" x2="2704.19" y2="-1393.49" gradientUnits="userSpaceOnUse">
<stop offset="0.01"/>
<stop offset="0.13" stop-opacity="0.69"/>
<stop offset="0.25" stop-opacity="0.32"/>
<stop offset="1" stop-opacity="0"/>
</linearGradient>
<linearGradient id="paint10_linear" x1="1040.64" y1="-2208.08" x2="1150.24" y2="-2218.55" gradientUnits="userSpaceOnUse">
<stop offset="0.01"/>
<stop offset="0.13" stop-opacity="0.69"/>
<stop offset="0.25" stop-opacity="0.32"/>
<stop offset="1" stop-opacity="0"/>
</linearGradient>
<linearGradient id="paint11_linear" x1="520.739" y1="-1907.51" x2="569.34" y2="-1911.61" gradientUnits="userSpaceOnUse">
<stop offset="0.01"/>
<stop offset="0.13" stop-opacity="0.69"/>
<stop offset="0.25" stop-opacity="0.32"/>
<stop offset="1" stop-opacity="0"/>
</linearGradient>
</defs>
</svg>
