<svg width="16" height="18" viewBox="0 0 16 18" fill="none" xmlns="http://www.w3.org/2000/svg">
<path d="M12.6465 9.512C12.6385 8.03718 13.3055 6.92403 14.6558 6.10423C13.9003 5.02323 12.759 4.42848 11.252 4.31194C9.82545 4.19942 8.26624 5.14379 7.6956 5.14379C7.09281 5.14379 5.71041 4.35213 4.62539 4.35213C2.38302 4.3883 0 6.1404 0 9.70489C0 10.7578 0.192892 11.8455 0.578677 12.968C1.09306 14.4428 2.94964 18.0595 4.8866 17.9993C5.89929 17.9751 6.6146 17.2799 7.93269 17.2799C9.2106 17.2799 9.87367 17.9993 11.0029 17.9993C12.9559 17.9711 14.6357 14.6839 15.126 13.2051C12.5058 11.9714 12.6465 9.58835 12.6465 9.512ZM10.372 2.91348C11.4691 1.61145 11.3686 0.42597 11.3364 0C10.368 0.0562602 9.24677 0.659048 8.60782 1.40249C7.90456 2.19817 7.49065 3.18272 7.57906 4.29185C8.62791 4.37222 9.58433 3.83373 10.372 2.91348Z" fill="black"/>
</svg>
