<svg width="22" height="44" viewBox="0 0 22 44" fill="none" xmlns="http://www.w3.org/2000/svg">
<path d="M11 29.2148C14.917 29.2148 18.1436 25.9814 18.1436 22.0645C18.1436 18.1475 14.9102 14.9209 11 14.9209C7.08301 14.9209 3.85645 18.1475 3.85645 22.0645C3.85645 25.9814 7.08301 29.2148 11 29.2148ZM10.2412 25.4688C9.9541 25.4688 9.72852 25.3457 9.52344 25.0928L7.88281 23.1172C7.74609 22.9395 7.68457 22.7754 7.68457 22.5908C7.68457 22.2012 7.99219 21.8936 8.38184 21.8936C8.60742 21.8936 8.78516 21.9824 8.96289 22.2012L10.2207 23.7666L12.9619 19.3916C13.126 19.125 13.3379 18.9951 13.5771 18.9951C13.96 18.9951 14.3018 19.2686 14.3018 19.6582C14.3018 19.8223 14.2266 20 14.1172 20.1641L10.9248 25.0791C10.7607 25.332 10.5146 25.4688 10.2412 25.4688Z" fill="#629677"/>
</svg>
