<svg width="18" height="18" viewBox="0 0 18 18" fill="none" xmlns="http://www.w3.org/2000/svg">
<path d="M9 0C6.61305 0 4.32387 0.948211 2.63604 2.63604C0.948211 4.32387 0 6.61305 0 9C0 11.3869 0.948211 13.6761 2.63604 15.364C4.32387 17.0518 6.61305 18 9 18C11.3869 18 13.6761 17.0518 15.364 15.364C17.0518 13.6761 18 11.3869 18 9C18 6.61305 17.0518 4.32387 15.364 2.63604C13.6761 0.948211 11.3869 0 9 0Z" fill="#039BE5"/>
<path d="M10.2183 11.3855H12.5474L12.9131 9.0194H10.2179V7.72624C10.2179 6.74335 10.539 5.87177 11.4584 5.87177H12.9359V3.80698C12.6763 3.77193 12.1273 3.69519 11.0899 3.69519C8.92375 3.69519 7.65381 4.83914 7.65381 7.44535V9.0194H5.42702V11.3855H7.65381V17.8887C8.09481 17.955 8.54149 18 9.00002 18C9.41449 18 9.81902 17.9621 10.2183 17.9081V11.3855Z" fill="white"/>
</svg>
