<svg width="14" height="14" viewBox="0 0 14 14" fill="none" xmlns="http://www.w3.org/2000/svg">
<path d="M3.11331 10.8055C3.25105 10.4152 3.50647 10.0772 3.84438 9.83808C4.18229 9.59898 4.58604 9.47058 4.99998 9.47058C5.41392 9.47058 5.81767 9.59898 6.15558 9.83808C6.49349 10.0772 6.74891 10.4152 6.88665 10.8055H13.6666V12.1389H6.88665C6.74891 12.5292 6.49349 12.8673 6.15558 13.1064C5.81767 13.3455 5.41392 13.4738 4.99998 13.4738C4.58604 13.4738 4.18229 13.3455 3.84438 13.1064C3.50647 12.8673 3.25105 12.5292 3.11331 12.1389H0.333313V10.8055H3.11331ZM7.11331 6.13888C7.25105 5.74853 7.50647 5.4105 7.84438 5.17141C8.18229 4.93231 8.58604 4.80392 8.99998 4.80392C9.41392 4.80392 9.81767 4.93231 10.1556 5.17141C10.4935 5.4105 10.7489 5.74853 10.8866 6.13888H13.6666V7.47222H10.8866C10.7489 7.86257 10.4935 8.20059 10.1556 8.43969C9.81767 8.67879 9.41392 8.80718 8.99998 8.80718C8.58604 8.80718 8.18229 8.67879 7.84438 8.43969C7.50647 8.20059 7.25105 7.86257 7.11331 7.47222H0.333313V6.13888H7.11331ZM3.11331 1.47222C3.25105 1.08186 3.50647 0.743838 3.84438 0.504742C4.18229 0.265646 4.58604 0.137249 4.99998 0.137249C5.41392 0.137249 5.81767 0.265646 6.15558 0.504742C6.49349 0.743838 6.74891 1.08186 6.88665 1.47222H13.6666V2.80555H6.88665C6.74891 3.1959 6.49349 3.53393 6.15558 3.77302C5.81767 4.01212 5.41392 4.14052 4.99998 4.14052C4.58604 4.14052 4.18229 4.01212 3.84438 3.77302C3.50647 3.53393 3.25105 3.1959 3.11331 2.80555H0.333313V1.47222H3.11331ZM4.99998 2.80555C5.17679 2.80555 5.34636 2.73531 5.47138 2.61029C5.59641 2.48526 5.66665 2.31569 5.66665 2.13888C5.66665 1.96207 5.59641 1.7925 5.47138 1.66748C5.34636 1.54245 5.17679 1.47222 4.99998 1.47222C4.82317 1.47222 4.6536 1.54245 4.52858 1.66748C4.40355 1.7925 4.33331 1.96207 4.33331 2.13888C4.33331 2.31569 4.40355 2.48526 4.52858 2.61029C4.6536 2.73531 4.82317 2.80555 4.99998 2.80555ZM8.99998 7.47222C9.17679 7.47222 9.34636 7.40198 9.47138 7.27695C9.59641 7.15193 9.66665 6.98236 9.66665 6.80555C9.66665 6.62874 9.59641 6.45917 9.47138 6.33415C9.34636 6.20912 9.17679 6.13888 8.99998 6.13888C8.82317 6.13888 8.6536 6.20912 8.52858 6.33415C8.40355 6.45917 8.33331 6.62874 8.33331 6.80555C8.33331 6.98236 8.40355 7.15193 8.52858 7.27695C8.6536 7.40198 8.82317 7.47222 8.99998 7.47222ZM4.99998 12.1389C5.17679 12.1389 5.34636 12.0686 5.47138 11.9436C5.59641 11.8186 5.66665 11.649 5.66665 11.4722C5.66665 11.2954 5.59641 11.1258 5.47138 11.0008C5.34636 10.8758 5.17679 10.8055 4.99998 10.8055C4.82317 10.8055 4.6536 10.8758 4.52858 11.0008C4.40355 11.1258 4.33331 11.2954 4.33331 11.4722C4.33331 11.649 4.40355 11.8186 4.52858 11.9436C4.6536 12.0686 4.82317 12.1389 4.99998 12.1389Z" fill="#EEBB4D"/>
</svg>
