<svg width="14" height="14" viewBox="0 0 14 14" fill="none" xmlns="http://www.w3.org/2000/svg">
<path d="M11.0207 9.88355L13.876 12.7382L12.9327 13.6816L10.078 10.8262C9.01587 11.6777 7.69471 12.1408 6.33337 12.1389C3.02137 12.1389 0.333374 9.45088 0.333374 6.13888C0.333374 2.82688 3.02137 0.138884 6.33337 0.138884C9.64537 0.138884 12.3334 2.82688 12.3334 6.13888C12.3353 7.50022 11.8722 8.82138 11.0207 9.88355ZM9.68337 9.38888C10.5294 8.51881 11.002 7.3525 11 6.13888C11 3.56022 8.91137 1.47222 6.33337 1.47222C3.75471 1.47222 1.66671 3.56022 1.66671 6.13888C1.66671 8.71688 3.75471 10.8056 6.33337 10.8056C7.54699 10.8075 8.7133 10.335 9.58337 9.48888L9.68337 9.38888Z" fill="#573B00" fill-opacity="0.3"/>
</svg>
